<?xml version="1.0" encoding="utf-8"?>
<!-- Generator: Adobe Illustrator 21.0.0, SVG Export Plug-In . SVG Version: 6.00 Build 0)  -->
<svg version="1.1" id="Layer_1" xmlns="http://www.w3.org/2000/svg" xmlns:xlink="http://www.w3.org/1999/xlink" x="0px" y="0px"
	 viewBox="0 0 100 100" style="enable-background:new 0 0 100 100;" xml:space="preserve">
<style type="text/css">
	.st0{fill:#FFFFFF;}
</style>
<g id="XMLID_1_">
	<g id="XMLID_13_">
		<path id="XMLID_14_" class="st0" d="M82.8,53.8H10.6c-1,0-1.8-0.7-1.9-1.7c-0.1-1-0.1-2.6,0-4.2c0-0.6,0-1.2,0-1.7
			c0-15.5,10.4-25.9,25.8-25.9c11.6,0,20.7,6,24.9,16.2c2.7-3.6,6.7-5.9,11.1-5.9c8.4,0,14.2,5.7,14.2,14v7.2
			C84.7,52.9,83.9,53.8,82.8,53.8z M12.5,49.9h68.4v-5.3c0-7-5.2-10.1-10.4-10.1c-4.3,0-8.1,3-9.7,7.5c-0.3,0.8-1,1.3-1.9,1.3
			c-0.8,0-1.6-0.6-1.8-1.4c-2.9-11.1-11.3-17.7-22.7-17.7c-13.3,0-21.9,8.7-21.9,22.1c0,0.5,0,1.1,0,1.8
			C12.5,48.6,12.5,49.3,12.5,49.9z"/>
	</g>
	<g id="XMLID_11_">
		<path id="XMLID_12_" class="st0" d="M77.4,69.2c-5.3,0-9.7-3.7-11.5-8.8c-2.8,11-11.3,19.1-24.5,19.1c-13.6,0-23.8-8.7-23.8-24
			c0-1.5-0.2-4.4,0-5.6h72.2c0,2.5,0,5.2,0,7.2C89.7,64.7,84.2,69.2,77.4,69.2z"/>
	</g>
</g>
</svg>
