<?xml version="1.0" encoding="utf-8"?>
<!-- Generator: Adobe Illustrator 21.0.0, SVG Export Plug-In . SVG Version: 6.00 Build 0)  -->
<svg version="1.1" id="Layer_1" xmlns="http://www.w3.org/2000/svg" xmlns:xlink="http://www.w3.org/1999/xlink" x="0px" y="0px"
	 viewBox="0 0 200 200" style="enable-background:new 0 0 200 200;" xml:space="preserve">
<style type="text/css">
	.st0{fill:#FF4D00;stroke:#FFFFFF;stroke-width:0.5;stroke-miterlimit:10;}
	.st1{fill:#FFFFFF;}
	.st2{fill:#009245;stroke:#FFFFFF;stroke-width:0.5;stroke-miterlimit:10;}
</style>
<rect x="-62.6" y="81.5" transform="matrix(0.7071 0.7071 -0.7071 0.7071 100 -41.4214)" class="st2" width="325.3" height="36.9"/>
<g>
	<path class="st1" d="M82.6,67c-3.2,3.2-9,9.9-6.4,19.8c-0.8-0.1-2.5,0-3.4,0.1c-1.4-5.7,0-10.7,2.1-14.7c-5.1,2.5-10,3.3-14.7,2.1
		c0.1-0.8-0.1-2.6-0.2-3.5c5.3,1.8,10.6,0.5,16.1-3l0.9,1.2c0.5-0.8,1.1-1.4,1.6-2.1l-3.9-3.9l2.1-2.1L82.6,67z"/>
	<path class="st1" d="M105.8,89.7l-15.3,15.3l-2-2l0.6-0.6L78.6,91.7L78,92.3L76,90.4l15.3-15.3L105.8,89.7z M91,100.5l11-11
		L95.5,83l1.2,1.5L95.8,85l3.4,3.4L97.6,90l1.3,1.3l-1.1,1.1l-9.2-9.2l1.1-1.1l2.3,2.3c0.3-0.1,0.6-0.3,0.9-0.4l-1.6-1.6l1-1
		l1.9,1.9c0.4-0.2,0.7-0.4,1.1-0.6l-3.8-3.8l-11,11L91,100.5z M91.4,98.8l-3.1-3.1l-0.8,0.8l-1.8-1.8l0.8-0.8l-4-4
		c0.7-0.4,1.7-0.9,2.5-1.4l-0.8-0.8l1-1l4.2,4.2l0.5-0.5L86.6,87l2.5-2.5l7.4,7.4L94,94.4l-2.2-2.2l-0.5,0.5l3.1,3.1l-1,1l-3.1-3.1
		l-0.9,0.9l3.1,3.1L91.4,98.8z M87.5,92.8l0.9-0.9l-2-2c-0.4,0.2-0.7,0.5-1.1,0.7L87.5,92.8z M89.2,87.8l3.9,3.9l0.7-0.7l-3.9-3.9
		L89.2,87.8z M96.6,87.7l-2-2c-0.3,0.2-0.6,0.3-0.8,0.5l2.2,2.2L96.6,87.7z"/>
	<path class="st1" d="M103.3,106.6c-2.7,0.8-5.7,1.7-8.3,2.3l-0.4-3.1c2.2-0.4,5.6-1.2,8.6-2.1L103.3,106.6z M109.2,110.7
		c-2.9,2-6.4,3.1-11,1.8c0.1-0.8,0-2.3-0.2-3.1c3.9,1.2,6.8,0.6,9.1-0.8l-3.5-3.5l1.9-1.9l3.8,3.8c0.6-0.5,1.2-1.1,1.8-1.7l1.4-1.4
		l-3-3l1.9-1.9l3,3l2.6-2.6l2,2l-2.6,2.6l3.9,3.9l-5,5l1.3,1.3l-1.9,1.9L109.2,110.7z M103.3,102.3c-0.1-1.2-0.7-3.5-1.3-5l2.6-0.5
		c0.7,1.5,1.4,3.6,1.6,5L103.3,102.3z M111.2,112.9c-0.5,2.8-1.2,6.7-1.8,8.8l-2.8-0.8c0.7-2.1,1.5-6,2.1-8.9L111.2,112.9z
		 M109,98.6c-0.1-1.3-0.6-3.5-1.3-5.1l2.6-0.4c0.7,1.5,1.4,3.7,1.5,5L109,98.6z M113.1,107.4c-0.6,0.6-1.1,1.1-1.8,1.7l2,2l3.1-3.1
		l-2-2L113.1,107.4z"/>
	<path class="st1" d="M121.8,120.5c-1.7,1.2-3.6,2.3-5.4,2.9c0.1,0.5,0.2,1.1,0.4,1.9c0.5,1.9,2,3.6,3.9,5.5c2,2,5.2,4.8,7.3,6.4
		c-0.8,0.3-2.1,1-2.7,1.5c-1.5-1.3-4.6-4.2-6.6-6.2c-2.2-2.2-3.5-3.9-4-5.8c-0.3-1.1-0.4-2.3-0.7-2.6c-0.4-0.4-2.1,0.2-3.5,0.7
		l0.6-3.3c0.9-0.1,1.8-0.1,2.5,0c1.6-0.2,3.3-1,4.8-1.9l-2.1-2.1c1.4-0.6,3.2-1.6,4.9-2.5l-1.5-1.5l1.8-1.8l3.9,3.9
		c-1.5,0.9-3.3,1.8-4.9,2.6l0.2,0.2l0.3,0.2L121.8,120.5z M129.9,134.5l-3.2-3.2c0.5,1.5,1,3.2,1.2,4.4l-2.6-1c-0.1-1.1-0.4-3-1-4.5
		l1.7,0.3l-3.3-3.3l0.9,1.8c-1.6-0.1-3.8-0.6-5.4-1.3c0-0.7-0.1-2-0.3-2.7c1.4,0.7,2.9,1.4,4.2,1.6l-3-3l1.5-1.5l2.7,2.7l1-1
		l-2.1-2.1l1.5-1.5l2.1,2.1l0.9-0.9l1.8,1.8l-0.9,0.9l1.9,1.9l0.9-0.9l1.9,1.9l-0.9,0.9l2.1,2.1l-1.5,1.5l-2.1-2.1l-1,1l2.8,2.8
		L129.9,134.5z M123.8,113.4c0.6-1,1.4-2.7,2-3.9l2.3,1.3c-0.6,1.2-1.3,2.9-1.8,3.9L123.8,113.4z M130.9,121.8
		c-0.6,0.3-1.3,0.8-1.7,1.1c-3.9-2.9-4.6-3.3-5.1-3.5c0.3-0.5,0.7-1.5,0.8-2.2c0.4,0.1,1,0.1,1.7-0.5l3.3-3.3l4.8,4.8l-3.2,3.2
		l-3.2-3.2l-0.8,0.8L130.9,121.8z M124.8,126.5l1.9,1.9l1-1l-1.9-1.9L124.8,126.5z M130.1,116.2l-0.8,0.8l1.5,1.5l0.8-0.8
		L130.1,116.2z M131.7,126.1c-1.5-1.5-1.3-2.5,0.1-3.9l3.3-3.3l4.9,4.9l-3.2,3.2l-3.3-3.3l-0.1,0.1c-0.5,0.5-0.6,0.7-0.2,1.1
		l1.8,1.8c0.3,0.3,0.9,0.9,1.3,1.1c-0.4,0.5-0.9,1.1-1.2,1.5c-0.4-0.2-0.9-0.7-1.4-1.1L131.7,126.1z M135.5,121.6l-0.8,0.8l1.6,1.6
		l0.8-0.8L135.5,121.6z"/>
</g>
</svg>
